<svg xmlns="http://www.w3.org/2000/svg" version="1.1" xmlns:xlink="http://www.w3.org/1999/xlink" xmlns:svgjs="http://svgjs.dev/svgjs" width="1500" height="1500" viewBox="0 0 1500 1500"><rect width="1500" height="1500" fill="#ffbe79"></rect><g transform="matrix(0.6666666666666666,0,0,0.6666666666666666,250.00131562500025,187.66666666666674)"><svg viewBox="0 0 320 360" data-background-color="#ffbe79" preserveAspectRatio="xMidYMid meet" height="1687" width="1500" xmlns="http://www.w3.org/2000/svg" xmlns:xlink="http://www.w3.org/1999/xlink"><g id="tight-bounds" transform="matrix(1,0,0,1,-0.00042100000007394556,0)"><svg viewBox="0 0 320 360" height="360" width="320"><g><svg></svg></g><g><svg viewBox="0 0 320 360" height="360" width="320"><g><path transform="translate(-9.31575,10.66434) scale(0.39811,0.39811)" d="M827.2 486c-0.2-21.2-13.6-38-13.8-59.2-0.1-21.2 13.1-46.8 12.9-68-6.7-20.1-24.7-31.9-31.4-52-6.7-20.1-2.1-48.6-8.7-68.7-12.6-17.1-33.4-22.7-45.9-39.7-12.6-17.1-17-45.6-29.5-62.6-17.2-12.3-38.7-11.3-56-23.6-17.2-12.3-30.2-38.1-47.5-50.4-20.2-6.4-40.3 1.3-60.5-5.2-20.2-6.4-40.5-26.9-60.7-33.3-21.2 0.2-38 13.6-59.2 13.8-21.2 0.1-46.8-13.1-68-12.9-20.1 6.7-31.9 24.7-52 31.4-20.1 6.7-48.6 2.1-68.7 8.8-17.1 12.6-22.7 33.4-39.7 45.9-17.1 12.6-45.6 17-62.6 29.6-12.3 17.2-11.3 38.7-23.6 56-12.3 17.2-38.1 30.2-50.4 47.5-6.4 20.2 1.2 40.3-5.2 60.5-6.4 20.2-26.9 40.5-33.3 60.7 0.1 21.2 13.6 38 13.8 59.2 0.1 21.2-13.1 46.8-12.9 68 6.7 20.1 24.7 31.9 31.4 52 6.7 20.1 2.1 48.6 8.8 68.7 12.6 17.1 33.4 22.7 45.9 39.8 12.6 17.1 17 45.6 29.5 62.6 17.2 12.3 38.7 11.3 56 23.6 17.2 12.3 30.2 38.1 47.5 50.4 20.2 6.4 40.3-1.2 60.5 5.2 20.2 6.4 40.5 26.9 60.7 33.3 21.2-0.2 38-13.6 59.2-13.8 21.2-0.1 46.8 13.1 68 12.9 20.1-6.7 31.9-24.7 52-31.4 20.1-6.7 48.6-2.1 68.7-8.8 17.1-12.6 22.7-33.4 39.8-45.9 17.1-12.6 45.6-17 62.6-29.5 12.3-17.2 11.3-38.7 23.6-56 12.3-17.2 38.1-30.2 50.4-47.5 6.4-20.2-1.2-40.3 5.2-60.5 6.2-20.4 26.7-40.7 33.1-60.9zM792 544.4c-9.1 17.9-31.4 33.8-40.6 51.7-9.1 17.9-5.1 37.9-14.2 55.8-14.2 14.2-40.3 22.4-54.6 36.6-14.2 14.2-16.5 34.5-30.8 48.7-17.9 9.1-45.3 8.8-63.2 18-17.9 9.1-26.4 27.7-44.3 36.8-19.9 3.1-45.8-5.6-65.7-2.5-19.9 3.1-33.7 18.2-53.5 21.3-19.9-3.1-41.8-19.5-61.7-22.6-19.9-3.2-37.6 6.9-57.5 3.7-17.9-9.1-33.8-31.5-51.7-40.6-17.9-9.1-37.9-5.1-55.9-14.2-14.2-14.2-22.4-40.3-36.6-54.6-14.2-14.2-34.5-16.6-48.7-30.8-9.1-17.9-8.8-45.3-18-63.2-9.1-17.9-27.7-26.4-36.8-44.3-3.1-19.9 5.6-45.8 2.5-65.7-3.2-19.9-18.2-33.7-21.3-53.5 3.2-19.9 19.5-41.8 22.6-61.7 3.1-19.9-6.9-37.6-3.7-57.5 9.1-17.9 31.5-33.8 40.6-51.7 9.1-17.9 5.1-37.9 14.2-55.9 14.2-14.2 40.3-22.4 54.6-36.6 14.2-14.2 16.6-34.5 30.8-48.7 17.9-9.1 45.3-8.8 63.2-18 17.9-9.1 26.4-27.7 44.3-36.8 19.9-3.1 45.8 5.6 65.7 2.5 19.9-3.1 33.7-18.2 53.5-21.3 19.9 3.1 41.8 19.5 61.7 22.6 19.9 3.2 37.6-6.9 57.5-3.7 17.9 9.1 33.8 31.5 51.7 40.6 17.9 9.1 37.9 5.1 55.9 14.2 14.2 14.2 22.4 40.3 36.6 54.6 14.2 14.2 34.5 16.6 48.7 30.8 9.1 17.9 8.8 45.3 18 63.2 9.1 17.9 27.7 26.4 36.8 44.3 3.2 19.9-5.6 45.8-2.5 65.7 3.1 19.9 18.2 33.7 21.3 53.5-3.1 19.9-19.5 41.8-22.6 61.7-3.1 19.9 6.9 37.7 3.7 57.6z" fill="#ba3b0a" fill-rule="nonzero" stroke="none" stroke-width="1" stroke-linecap="butt" stroke-linejoin="miter" stroke-miterlimit="10" stroke-dasharray="" stroke-dashoffset="0" font-family="none" font-weight="none" font-size="none" text-anchor="none" style="mix-blend-mode: normal" data-fill-palette-color="tertiary"></path></g><g transform="matrix(1,0,0,1,48,128.8264858112057)"><svg viewBox="0 0 224 102.3470283775886" height="102.3470283775886" width="224"><g><svg viewBox="0 0 225.11999999999998 102.85876351947653" height="102.3470283775886" width="224"><g><rect width="225.11999999999998" height="3.15042807441164" x="0" y="56.52665470640976" fill="#e8772e" opacity="1" stroke-width="0" stroke="transparent" fill-opacity="1" class="rect-qz-0" data-fill-palette-color="secondary" rx="1%" id="qz-0" data-palette-color="#e8772e"></rect></g><g transform="matrix(1,0,0,1,0.5599999999999881,67.92427669289376)"><svg viewBox="0 0 224 34.93448682658278" height="34.93448682658278" width="224"><g id="textblocktransform"><svg viewBox="0 0 224 34.93448682658278" height="34.93448682658278" width="224" id="textblock"><g><svg viewBox="0 0 224 34.93448682658278" height="34.93448682658278" width="224"><g transform="matrix(1,0,0,1,0,0)"><svg width="224" viewBox="1.05 -38.01 310.39 48.41" height="34.93448682658278" data-palette-color="#ba3b0a"><path d="M23.22 0L20.41-9.28 8.4-9.28 5.64 0 1.05 0 12.5-35.55 16.33-35.55 27.81 0 23.22 0ZM14.4-29.3L9.57-13.13 19.26-13.13 14.4-29.3ZM38.25 0L33.93 0 33.93-22.92 30.49-22.92 30.49-26.42 33.93-26.42 33.93-29.47Q34.01-33.5 35.97-35.75 37.94-38.01 41.53-38.01L41.53-38.01Q42.82-38.01 44.14-37.6L44.14-37.6 43.92-33.94Q42.99-34.16 41.94-34.16L41.94-34.16Q38.25-34.16 38.25-28.91L38.25-28.91 38.25-26.42 42.77-26.42 42.77-22.92 38.25-22.92 38.25 0ZM46.41-11.47L46.41-14.4Q46.41-20.58 48.65-23.74 50.9-26.9 55.22-26.9L55.22-26.9Q59.25-26.9 61.35-23.46L61.35-23.46 61.57-26.42 65.47-26.42 65.47 0.24Q65.47 5.15 62.96 7.78 60.44 10.4 55.95 10.4L55.95 10.4Q54 10.4 51.57 9.44 49.14 8.47 47.92 7.06L47.92 7.06 49.68 4.08Q52.36 6.71 55.61 6.71L55.61 6.71Q61.01 6.71 61.15 0.83L61.15 0.83 61.15-2.61Q59.05 0.49 55.2 0.49L55.2 0.49Q51.09 0.49 48.8-2.6 46.5-5.69 46.41-11.47L46.41-11.47ZM50.73-14.58L50.73-11.94Q50.73-7.5 52.03-5.41 53.34-3.32 56.32-3.32L56.32-3.32Q59.54-3.32 61.15-6.62L61.15-6.62 61.15-19.82Q59.47-23.07 56.37-23.07L56.37-23.07Q53.39-23.07 52.07-20.98 50.75-18.9 50.73-14.58L50.73-14.58ZM76.21-37.5L76.21-23.71Q78.68-26.9 82.51-26.9L82.51-26.9Q89.52-26.9 89.62-17.55L89.62-17.55 89.62 0 85.32 0 85.32-17.36Q85.32-20.46 84.28-21.77 83.24-23.07 81.17-23.07L81.17-23.07Q79.56-23.07 78.28-22 76.99-20.92 76.21-19.19L76.21-19.19 76.21 0 71.89 0 71.89-37.5 76.21-37.5ZM114.13 0L109.63 0Q109.24-0.85 109.07-2.88L109.07-2.88Q106.78 0.49 103.21 0.49L103.21 0.49Q99.62 0.49 97.61-1.53 95.6-3.54 95.6-7.2L95.6-7.2Q95.6-11.23 98.33-13.6 101.06-15.97 105.82-16.02L105.82-16.02 109-16.02 109-18.82Q109-21.19 107.95-22.19 106.9-23.19 104.75-23.19L104.75-23.19Q102.8-23.19 101.58-22.03 100.36-20.87 100.36-19.09L100.36-19.09 96.03-19.09Q96.03-21.12 97.23-22.96 98.43-24.8 100.45-25.85 102.48-26.9 104.97-26.9L104.97-26.9Q109.02-26.9 111.14-24.89 113.25-22.88 113.3-19.02L113.3-19.02 113.3-5.69Q113.32-2.64 114.13-0.39L114.13-0.39 114.13 0ZM103.87-3.44L103.87-3.44Q105.46-3.44 106.9-4.32 108.34-5.2 109-6.52L109-6.52 109-12.82 106.56-12.82Q103.48-12.77 101.7-11.44 99.92-10.11 99.92-7.71L99.92-7.71Q99.92-5.47 100.82-4.46 101.72-3.44 103.87-3.44ZM119.98-26.42L124.06-26.42 124.18-23.56Q126.7-26.9 130.6-26.9L130.6-26.9Q137.61-26.9 137.71-17.55L137.71-17.55 137.71 0 133.41 0 133.41-17.36Q133.41-20.46 132.37-21.77 131.34-23.07 129.26-23.07L129.26-23.07Q127.65-23.07 126.37-22 125.09-20.92 124.3-19.19L124.3-19.19 124.3 0 119.98 0 119.98-26.42ZM148.84-26.42L148.84 0 144.52 0 144.52-26.42 148.84-26.42ZM149.18-33.42L149.18-33.42Q149.18-32.32 148.57-31.59 147.96-30.86 146.71-30.86L146.71-30.86Q145.49-30.86 144.88-31.59 144.27-32.32 144.27-33.42 144.27-34.52 144.88-35.28 145.49-36.04 146.71-36.04 147.93-36.04 148.56-35.27 149.18-34.5 149.18-33.42ZM185.45-11.28L189.97-11.28Q189.68-5.57 186.76-2.54 183.84 0.49 178.52 0.49L178.52 0.49Q173.17 0.49 170.02-3.58 166.87-7.64 166.87-14.6L166.87-14.6 166.87-21.04Q166.87-27.98 170.11-32.01 173.34-36.04 178.94-36.04L178.94-36.04Q184.09-36.04 186.91-32.95 189.73-29.86 189.97-24.12L189.97-24.12 185.45-24.12Q185.16-28.47 183.62-30.32 182.08-32.18 178.94-32.18L178.94-32.18Q175.3-32.18 173.34-29.33 171.39-26.49 171.39-21L171.39-21 171.39-14.48Q171.39-9.08 173.21-6.2 175.03-3.32 178.52-3.32 182.01-3.32 183.55-5.05 185.09-6.79 185.45-11.28L185.45-11.28ZM200.08-37.5L200.08 0 195.75 0 195.75-37.5 200.08-37.5ZM205.96-11.55L205.96-14.43Q205.96-20.19 208.75-23.55 211.55-26.9 216.14-26.9 220.73-26.9 223.52-23.63 226.32-20.36 226.39-14.72L226.39-14.72 226.39-11.94Q226.39-6.2 223.61-2.86 220.82 0.49 216.19 0.49L216.19 0.49Q211.6 0.49 208.83-2.76 206.05-6.01 205.96-11.55L205.96-11.55ZM210.28-14.45L210.28-11.94Q210.28-7.86 211.88-5.53 213.48-3.2 216.19-3.2L216.19-3.2Q221.9-3.2 222.07-11.45L222.07-11.45 222.07-14.43Q222.07-18.48 220.46-20.84 218.85-23.19 216.14-23.19L216.14-23.19Q213.48-23.19 211.88-20.84 210.28-18.48 210.28-14.45L210.28-14.45ZM233.32-32.81L237.62-32.81 237.62-26.42 241.6-26.42 241.6-22.92 237.62-22.92 237.62-6.54Q237.62-4.98 238.13-4.17 238.64-3.37 239.89-3.37L239.89-3.37Q240.74-3.37 241.62-3.66L241.62-3.66 241.57 0Q240.11 0.49 238.57 0.49L238.57 0.49Q236.01 0.49 234.66-1.34 233.32-3.17 233.32-6.52L233.32-6.52 233.32-22.92 229.29-22.92 229.29-26.42 233.32-26.42 233.32-32.81ZM251.04-37.5L251.04-23.71Q253.51-26.9 257.34-26.9L257.34-26.9Q264.35-26.9 264.45-17.55L264.45-17.55 264.45 0 260.15 0 260.15-17.36Q260.15-20.46 259.11-21.77 258.08-23.07 256-23.07L256-23.07Q254.39-23.07 253.11-22 251.83-20.92 251.04-19.19L251.04-19.19 251.04 0 246.72 0 246.72-37.5 251.04-37.5ZM280.31 0.49L280.31 0.49Q275.38 0.49 272.75-2.45 270.11-5.4 270.06-11.08L270.06-11.08 270.06-14.28Q270.06-20.19 272.64-23.55 275.21-26.9 279.83-26.9L279.83-26.9Q284.46-26.9 286.76-23.95 289.05-21 289.1-14.75L289.1-14.75 289.1-11.91 274.36-11.91 274.36-11.3Q274.36-7.06 275.96-5.13 277.56-3.2 280.56-3.2L280.56-3.2Q282.46-3.2 283.92-3.92 285.37-4.64 286.64-6.2L286.64-6.2 288.88-3.47Q286.08 0.49 280.31 0.49ZM279.83-23.19L279.83-23.19Q277.14-23.19 275.85-21.35 274.55-19.51 274.38-15.63L274.38-15.63 284.78-15.63 284.78-16.21Q284.61-19.97 283.43-21.58 282.24-23.19 279.83-23.19ZM307.12-6.76L307.12-6.76Q307.12-8.15 306.07-9.16 305.02-10.16 302.02-11.5L302.02-11.5Q298.52-12.94 297.1-13.96 295.67-14.99 294.96-16.3 294.25-17.6 294.25-19.41L294.25-19.41Q294.25-22.63 296.61-24.77 298.96-26.9 302.63-26.9L302.63-26.9Q306.48-26.9 308.83-24.66 311.17-22.41 311.17-18.9L311.17-18.9 306.87-18.9Q306.87-20.68 305.68-21.94 304.48-23.19 302.63-23.19L302.63-23.19Q300.72-23.19 299.64-22.2 298.55-21.22 298.55-19.56L298.55-19.56Q298.55-18.24 299.34-17.43 300.14-16.63 303.16-15.31L303.16-15.31Q307.97-13.43 309.71-11.63 311.44-9.84 311.44-7.08L311.44-7.08Q311.44-3.64 309.07-1.57 306.7 0.49 302.72 0.49L302.72 0.49Q298.6 0.49 296.03-1.88 293.47-4.25 293.47-7.89L293.47-7.89 297.82-7.89Q297.89-5.69 299.16-4.44 300.43-3.2 302.72-3.2L302.72-3.2Q304.87-3.2 306-4.16 307.12-5.13 307.12-6.76Z" opacity="1" transform="matrix(1,0,0,1,0,0)" fill="#ba3b0a" class="wordmark-text-0" data-fill-palette-color="primary" id="text-0"></path></svg></g></svg></g></svg></g></svg></g><g transform="matrix(1,0,0,1,54.01852752651599,0)"><svg viewBox="0 0 117.082944946968 48.2794607943374" height="48.2794607943374" width="117.082944946968"><g><svg xmlns="http://www.w3.org/2000/svg" xmlns:xlink="http://www.w3.org/1999/xlink" version="1.1" x="8" y="0" viewBox="5 28.507 90 42.986000000000004" enable-background="new 0 0 100 100" xml:space="preserve" height="48.2794607943374" width="101.082944946968" class="icon-icon-0" data-fill-palette-color="accent" id="icon-0"><path d="M87.89 28.901c-0.252-0.252-0.593-0.394-0.949-0.394-9.569 0-27.269 6.445-33.009 15.447h-7.864c-5.74-9.002-23.439-15.447-33.008-15.447-0.356 0-0.698 0.142-0.95 0.394C11.819 29.191 5 36.17 5 50s6.819 20.81 7.11 21.099c0.252 0.252 0.594 0.394 0.95 0.394 9.57 0 27.269-6.444 33.008-15.447h7.864c5.74 9.003 23.439 15.447 33.009 15.447 0.356 0 0.697-0.142 0.949-0.394C88.18 70.81 95 63.83 95 50S88.18 29.191 87.89 28.901zM88.955 43.284c0 1.854-1.503 3.357-3.358 3.357-1.854 0-3.357-1.503-3.357-3.357 0-1.855 1.503-3.358 3.357-3.358C87.452 39.926 88.955 41.429 88.955 43.284zM75.522 43.284c0 1.854-1.503 3.357-3.358 3.357-1.854 0-3.358-1.503-3.358-3.357 0-1.855 1.504-3.358 3.358-3.358C74.02 39.926 75.522 41.429 75.522 43.284zM72.164 53.358c1.855 0 3.358 1.503 3.358 3.358 0 1.854-1.503 3.357-3.358 3.357-1.854 0-3.358-1.503-3.358-3.357C68.806 54.861 70.31 53.358 72.164 53.358zM85.597 53.358c1.855 0 3.358 1.503 3.358 3.358 0 1.854-1.503 3.357-3.358 3.357-1.854 0-3.357-1.503-3.357-3.357C82.239 54.861 83.742 53.358 85.597 53.358zM87.43 32.638c-0.53 0.35-1.15 0.571-1.833 0.571-1.228 0-2.283-0.665-2.864-1.649 1.293-0.2 2.513-0.324 3.617-0.356C86.607 31.507 86.986 31.988 87.43 32.638zM60.771 40.632c0.797 0.613 1.318 1.567 1.318 2.652 0 1.854-1.504 3.357-3.358 3.357-1.022 0-1.927-0.462-2.54-1.183C57.266 43.745 58.847 42.126 60.771 40.632zM43.808 45.459c-0.612 0.721-1.518 1.183-2.54 1.183-1.855 0-3.358-1.503-3.358-3.357 0-1.085 0.521-2.039 1.318-2.652C41.154 42.125 42.734 43.745 43.808 45.459zM14.403 39.926c1.855 0 3.358 1.503 3.358 3.358 0 1.854-1.503 3.357-3.358 3.357-1.854 0-3.358-1.503-3.358-3.357C11.045 41.429 12.548 39.926 14.403 39.926zM11.045 56.717c0-1.855 1.503-3.358 3.358-3.358 1.855 0 3.358 1.503 3.358 3.358 0 1.854-1.503 3.357-3.358 3.357C12.548 60.074 11.045 58.571 11.045 56.717zM24.478 56.717c0-1.855 1.503-3.358 3.358-3.358s3.358 1.503 3.358 3.358c0 1.854-1.503 3.357-3.358 3.357S24.478 58.571 24.478 56.717zM27.836 46.642c-1.855 0-3.358-1.503-3.358-3.357 0-1.855 1.503-3.358 3.358-3.358s3.358 1.503 3.358 3.358C31.194 45.139 29.691 46.642 27.836 46.642zM13.654 31.203c1.104 0.032 2.323 0.156 3.614 0.356-0.581 0.984-1.638 1.649-2.865 1.649-0.679 0-1.297-0.219-1.825-0.566C13.021 31.991 13.398 31.509 13.654 31.203zM12.571 67.363c0.529-0.351 1.149-0.572 1.832-0.572 1.228 0 2.284 0.666 2.865 1.649-1.293 0.2-2.513 0.323-3.617 0.356C13.394 68.492 13.015 68.013 12.571 67.363zM39.229 59.369c-0.798-0.614-1.318-1.567-1.318-2.652 0-1.855 1.503-3.358 3.358-3.358 1.022 0 1.927 0.462 2.54 1.183C42.734 56.255 41.153 57.875 39.229 59.369zM56.191 54.541c0.613-0.721 1.518-1.183 2.54-1.183 1.854 0 3.358 1.503 3.358 3.358 0 1.085-0.521 2.038-1.318 2.652C58.847 57.875 57.266 56.255 56.191 54.541zM86.346 68.797c-1.103-0.033-2.323-0.156-3.613-0.356 0.581-0.983 1.637-1.649 2.864-1.649 0.68 0 1.298 0.219 1.825 0.566C86.979 68.009 86.602 68.491 86.346 68.797z" fill="#e8772e" data-fill-palette-color="accent"></path></svg></g></svg></g><g><rect width="10.674527526515995" height="3.15042807441164" y="44.12903271992576" x="171.101472473484" fill="#e8772e" data-fill-palette-color="secondary"></rect><rect width="10.674527526515995" height="3.15042807441164" y="44.12903271992576" x="43.343999999999994" fill="#e8772e" data-fill-palette-color="secondary"></rect></g></svg></g></svg></g></svg></g><defs></defs></svg><rect width="320" height="360" fill="none" stroke="none" visibility="hidden"></rect></g></svg></g></svg>