<svg xmlns="http://www.w3.org/2000/svg" version="1.1" xmlns:xlink="http://www.w3.org/1999/xlink" xmlns:svgjs="http://svgjs.dev/svgjs" width="2000" height="1500" viewBox="0 0 2000 1500"><rect width="2000" height="1500" fill="#ffffff"></rect><g transform="matrix(0.75,0,0,0.75,249.09186340902704,614.6148747719521)"><svg viewBox="0 0 396 72" data-background-color="#ffffff" preserveAspectRatio="xMidYMid meet" height="363" width="2000" xmlns="http://www.w3.org/2000/svg" xmlns:xlink="http://www.w3.org/1999/xlink"><g id="tight-bounds" transform="matrix(1,0,0,1,0.23974806001686488,-0.19520450892505892)"><svg viewBox="0 0 395.5199999999999 72.39087387010248" height="72.39087387010248" width="395.5199999999999"><g><svg viewBox="0 0 434.6223937561617 79.54767113552873" height="72.39087387010248" width="395.5199999999999"><g transform="matrix(1,0,0,1,39.10239375616177,0)"><svg viewBox="0 0 395.52 79.54767113552873" height="79.54767113552873" width="395.52"><g id="textblocktransform"><svg viewBox="0 0 395.52 79.54767113552873" height="79.54767113552873" width="395.52" id="textblock"><g><svg viewBox="0 0 395.52 79.54767113552873" height="79.54767113552873" width="395.52"><g transform="matrix(1,0,0,1,0,0)"><svg width="395.52" viewBox="-2.7832600000000003 -22.87363 286.4914250835637 57.619648383223875" height="79.54767113552873" data-palette-color="#093d65"><path d="M2.371 15.646l-5.154-1.359 18.74-37.161 5.299 1.397-1.973 41.58-5.202-1.371 0.823-10.383-8.026-2.115zM16.576-14.396l-7.925 16.888 6.556 1.728zM30.336 22.562l-5.252-1.167 5.441-24.483-3.387-0.753 0.861-3.875 3.387 0.753 0.328-1.474c0.392-1.764 0.868-3.246 1.429-4.446 0.559-1.194 1.354-2.038 2.386-2.533 1.037-0.487 2.44-0.533 4.211-0.14v0c0.651 0.145 1.225 0.296 1.722 0.455 0.496 0.165 1.039 0.381 1.628 0.649v0l-0.85 3.826c-0.278-0.13-0.591-0.261-0.938-0.392-0.348-0.125-0.671-0.221-0.97-0.288v0c-1.015-0.226-1.734-0.034-2.157 0.576-0.429 0.608-0.767 1.469-1.014 2.581v0l-0.523 2.353 4.315 0.959-0.861 3.875-4.315-0.958zM43.815 34.365v0c-1.711-0.316-3.224-0.785-4.54-1.407-1.317-0.616-2.299-1.394-2.945-2.334-0.642-0.932-0.844-2.04-0.607-3.325v0c0.171-0.924 0.516-1.694 1.036-2.31 0.522-0.622 1.144-1.131 1.868-1.527 0.717-0.396 1.453-0.694 2.209-0.894v0c-0.876-0.433-1.49-0.98-1.842-1.641-0.359-0.663-0.48-1.309-0.365-1.938v0c0.195-1.056 0.644-1.908 1.347-2.559 0.698-0.658 1.623-1.338 2.776-2.04v0c-0.936-1.027-1.564-2.234-1.884-3.622-0.327-1.389-0.28-3.221 0.14-5.496v0c0.414-2.242 1.063-4.054 1.949-5.436 0.887-1.389 2.005-2.359 3.354-2.91 1.343-0.552 2.886-0.667 4.629-0.345v0c1.554 0.287 2.751 0.779 3.592 1.476 0.84 0.704 1.408 1.626 1.706 2.765v0c0.219-0.231 0.748-0.601 1.588-1.11 0.846-0.508 1.784-0.888 2.814-1.138v0l0.86-0.197 0.707 3.659c-0.445-0.014-1.044 0.035-1.796 0.146-0.754 0.118-1.459 0.246-2.115 0.383-0.654 0.13-1.079 0.262-1.273 0.395v0c0.125 0.606 0.183 1.454 0.172 2.544-0.011 1.089-0.092 2.044-0.244 2.863v0c-0.359 1.947-0.925 3.616-1.696 5.005-0.765 1.391-1.795 2.401-3.091 3.03-1.289 0.63-2.94 0.759-4.953 0.387v0c-0.426-0.079-0.879-0.196-1.359-0.352-0.486-0.158-0.917-0.322-1.292-0.493v0c-0.251 0.259-0.522 0.568-0.812 0.928-0.289 0.353-0.467 0.71-0.533 1.071v0c-0.068 0.367 0.069 0.691 0.411 0.971 0.34 0.287 0.917 0.539 1.731 0.757v0l4.373 1.213c2.206 0.61 3.746 1.593 4.621 2.948 0.875 1.355 1.115 3.104 0.72 5.248v0c-0.286 1.547-0.891 2.788-1.816 3.722-0.926 0.941-2.169 1.539-3.727 1.793-1.567 0.26-3.471 0.183-5.713-0.23zM44.976 30.278v0c1.882 0.347 3.309 0.383 4.281 0.108 0.967-0.282 1.542-0.919 1.725-1.908v0c0.109-0.59 0.095-1.104-0.04-1.543-0.144-0.433-0.473-0.816-0.988-1.149-0.521-0.334-1.3-0.65-2.337-0.949v0l-4.421-1.223c-0.428 0.301-0.843 0.6-1.244 0.899-0.394 0.3-0.728 0.638-1.001 1.015-0.273 0.377-0.452 0.795-0.536 1.254v0c-0.158 0.859 0.084 1.568 0.726 2.127 0.649 0.56 1.928 1.017 3.835 1.369zM47.895 13.082v0c0.76 0.14 1.389 0.114 1.886-0.079 0.498-0.2 0.912-0.55 1.241-1.052 0.33-0.502 0.61-1.138 0.841-1.91 0.225-0.779 0.429-1.663 0.611-2.653v0c0.183-0.99 0.309-1.895 0.38-2.716 0.064-0.822 0.04-1.542-0.07-2.158-0.103-0.616-0.351-1.112-0.742-1.49-0.391-0.377-0.967-0.636-1.728-0.776v0c-0.721-0.133-1.348-0.096-1.881 0.11-0.533 0.207-0.964 0.561-1.294 1.063-0.33 0.502-0.618 1.147-0.866 1.935-0.247 0.788-0.468 1.71-0.663 2.766v0c-0.165 0.892-0.279 1.731-0.343 2.519-0.058 0.789-0.017 1.488 0.122 2.097 0.146 0.603 0.419 1.111 0.817 1.524 0.405 0.414 0.968 0.687 1.689 0.82zM65.573 28.887l-5.324-0.773 5.846-40.288 5.324 0.773-2.108 14.528c1.098-0.79 2.293-1.432 3.584-1.926 1.29-0.486 2.664-0.624 4.121-0.412v0c1.128 0.164 1.956 0.587 2.484 1.27 0.526 0.689 0.85 1.498 0.972 2.425 0.114 0.933 0.103 1.864-0.032 2.794v0l-3.377 23.276-5.325-0.772 3.154-21.733c0.149-1.029 0.117-1.849-0.098-2.459-0.216-0.604-0.788-0.973-1.719-1.109v0c-0.627-0.091-1.306-0.004-2.038 0.26-0.733 0.271-1.438 0.627-2.115 1.068v0zM88.062 32.068v0c-1.134-0.114-2.1-0.539-2.897-1.276-0.804-0.737-1.407-1.639-1.809-2.704-0.396-1.065-0.537-2.164-0.422-3.299v0c0.181-1.804 0.635-3.293 1.362-4.466 0.721-1.174 1.648-2.133 2.782-2.877 1.14-0.743 2.431-1.361 3.874-1.852 1.45-0.498 2.972-0.968 4.564-1.411v0l0.205-2.05c0.117-1.167 0.148-2.143 0.093-2.926-0.055-0.783-0.273-1.384-0.653-1.804-0.379-0.427-0.987-0.682-1.823-0.766v0c-0.73-0.073-1.337 0.033-1.821 0.32-0.484 0.286-0.857 0.728-1.118 1.325-0.261 0.597-0.433 1.313-0.517 2.149v0l-0.146 1.453-5.283-0.731c0.388-3.197 1.358-5.485 2.91-6.864 1.551-1.372 3.796-1.91 6.735-1.616v0c2.866 0.288 4.82 1.274 5.864 2.961 1.044 1.686 1.416 4.015 1.118 6.986v0l-1.325 13.194c-0.091 0.902-0.155 1.773-0.192 2.614-0.03 0.834-0.041 1.614-0.033 2.338 0.014 0.732 0.022 1.416 0.025 2.053v0l-4.906-0.492c-0.046-0.541-0.101-1.23-0.164-2.067-0.071-0.831-0.106-1.582-0.106-2.252v0c-0.446 1.101-1.192 2.095-2.239 2.981-1.054 0.886-2.413 1.245-4.078 1.079zM90.623 27.681v0c0.537 0.054 1.053-0.045 1.548-0.297 0.495-0.259 0.947-0.558 1.356-0.899 0.403-0.348 0.683-0.632 0.839-0.85v0l0.824-8.209c-0.883 0.387-1.713 0.776-2.489 1.168-0.783 0.39-1.476 0.817-2.078 1.278-0.603 0.462-1.092 1.003-1.469 1.622-0.384 0.618-0.617 1.345-0.701 2.181v0c-0.117 1.167 0.007 2.105 0.371 2.811 0.371 0.714 0.97 1.112 1.799 1.195zM110.187 33.452l-5.37-0.316 1.703-29 5.37 0.316-0.167 2.855c1.024-0.841 2.141-1.547 3.35-2.117 1.208-0.563 2.515-0.804 3.919-0.722v0c1.171 0.069 2.049 0.421 2.632 1.056 0.583 0.642 0.972 1.419 1.166 2.333 0.2 0.92 0.272 1.849 0.217 2.787v0l-1.379 23.48-5.371-0.316 1.287-21.922c0.061-1.038-0.041-1.852-0.307-2.442-0.266-0.583-0.869-0.902-1.807-0.958v0c-0.599-0.035-1.235 0.104-1.908 0.419-0.673 0.314-1.327 0.703-1.962 1.167v0zM133.042 34.404l-5.368-0.144 0.777-29.039 5.368 0.143zM133.934 1.046l-5.368-0.144 0.15-5.628 5.369 0.144zM161.877 34.392v0c-2.878 0.097-5.134-0.43-6.767-1.583-1.633-1.152-2.794-2.737-3.483-4.755-0.689-2.025-1.075-4.293-1.16-6.805v0l-0.485-14.361c-0.093-2.745 0.136-5.151 0.687-7.218 0.551-2.06 1.603-3.68 3.158-4.859 1.555-1.173 3.771-1.808 6.649-1.905v0c2.545-0.086 4.58 0.316 6.104 1.204 1.517 0.883 2.632 2.186 3.344 3.91 0.712 1.717 1.109 3.798 1.191 6.243v0l0.109 3.218-5.377 0.182-0.097-2.869c-0.051-1.506-0.169-2.836-0.355-3.99-0.192-1.147-0.632-2.026-1.319-2.637-0.695-0.617-1.828-0.899-3.401-0.846v0c-1.606 0.054-2.767 0.437-3.483 1.149-0.71 0.711-1.153 1.7-1.331 2.966-0.178 1.26-0.238 2.726-0.181 4.399v0l0.544 16.131c0.069 2.039 0.29 3.649 0.664 4.83 0.38 1.175 0.961 2.002 1.744 2.482 0.79 0.474 1.838 0.688 3.144 0.645v0c1.539-0.052 2.634-0.432 3.283-1.142 0.643-0.709 1.028-1.669 1.154-2.88 0.126-1.212 0.162-2.62 0.107-4.226v0l-0.102-3.019 5.377-0.181 0.102 3.018c0.084 2.479-0.142 4.674-0.678 6.587-0.542 1.913-1.532 3.42-2.969 4.523-1.437 1.102-3.495 1.699-6.173 1.789zM183.44 32.785l-5.357 0.369-2.802-40.613 5.358-0.37zM197.531 31.773v0c-2.135 0.22-3.864-0.037-5.186-0.773-1.323-0.742-2.325-1.885-3.008-3.429-0.683-1.552-1.135-3.408-1.358-5.571v0l-0.866-8.405c-0.223-2.162-0.158-4.072 0.194-5.73 0.353-1.652 1.101-2.975 2.245-3.971 1.145-0.989 2.785-1.594 4.92-1.814v0c2.129-0.219 3.848 0.039 5.156 0.775 1.303 0.744 2.296 1.888 2.978 3.433 0.683 1.552 1.135 3.408 1.358 5.57v0l0.866 8.406c0.223 2.162 0.158 4.072-0.194 5.73-0.353 1.652-1.091 2.974-2.214 3.968-1.131 0.988-2.761 1.591-4.891 1.811zM197.124 27.824v0c1.028-0.106 1.72-0.479 2.077-1.119 0.356-0.647 0.526-1.465 0.511-2.455-0.022-0.99-0.087-2.018-0.198-3.086v0l-0.932-9.052c-0.113-1.101-0.259-2.128-0.439-3.082-0.186-0.959-0.52-1.726-1.001-2.299-0.481-0.574-1.236-0.808-2.263-0.702v0c-1.035 0.107-1.739 0.491-2.113 1.153-0.367 0.661-0.544 1.48-0.531 2.457 0.02 0.97 0.086 2.005 0.199 3.106v0l0.933 9.052c0.11 1.068 0.255 2.088 0.436 3.061 0.187 0.973 0.528 1.738 1.021 2.298 0.499 0.552 1.266 0.774 2.3 0.668zM219.024 29.055v0c-1.492 0.211-2.733 0.101-3.723-0.331-0.991-0.439-1.767-1.14-2.328-2.104-0.562-0.971-0.941-2.153-1.139-3.546v0l-2.657-18.763-3.03 0.43-0.501-3.535 3.03-0.429-1.19-8.406 5.326-0.755 1.191 8.406 4.624-0.655 0.501 3.535-4.624 0.655 2.607 18.406c0.16 1.129 0.455 1.908 0.887 2.339 0.431 0.43 1.162 0.573 2.191 0.427v0c0.271-0.038 0.575-0.098 0.914-0.18 0.345-0.083 0.68-0.164 1.006-0.244v0l0.556 3.931c-0.646 0.193-1.249 0.355-1.809 0.489-0.555 0.126-1.165 0.236-1.832 0.33zM232.546 26.408l-5.298 0.935-7.079-40.09 5.298-0.935 2.553 14.456c0.795-1.095 1.728-2.079 2.799-2.952 1.072-0.866 2.334-1.428 3.785-1.683v0c1.123-0.198 2.041-0.056 2.756 0.427 0.716 0.49 1.277 1.156 1.683 1.998 0.401 0.85 0.683 1.738 0.846 2.663v0l4.09 23.162-5.298 0.935-3.819-21.625c-0.181-1.024-0.469-1.792-0.863-2.305-0.394-0.506-1.054-0.677-1.98-0.514v0c-0.624 0.11-1.242 0.405-1.854 0.886-0.611 0.487-1.169 1.046-1.674 1.677v0zM257.646 21.772v0c-2.226 0.494-4.04 0.442-5.443-0.155-1.403-0.597-2.529-1.686-3.378-3.265-0.849-1.58-1.546-3.597-2.09-6.051v0l-1.436-6.473c-0.559-2.519-0.777-4.669-0.654-6.452 0.118-1.774 0.695-3.224 1.73-4.347 1.042-1.119 2.644-1.918 4.804-2.398v0c2.382-0.529 4.248-0.427 5.599 0.304 1.343 0.726 2.401 1.973 3.176 3.741 0.768 1.769 1.439 3.945 2.012 6.529v0l0.514 2.314-11.188 2.482 1.263 5.692c0.253 1.139 0.567 2.046 0.941 2.721 0.369 0.676 0.828 1.131 1.378 1.363 0.552 0.24 1.205 0.276 1.96 0.108v0c0.781-0.173 1.335-0.494 1.661-0.962 0.328-0.462 0.485-1.06 0.473-1.795-0.008-0.743-0.116-1.586-0.326-2.53v0l-0.381-1.718 5.106-1.133 0.238 1.074c0.633 2.851 0.525 5.227-0.323 7.129-0.848 1.902-2.727 3.176-5.636 3.822zM250.321 3.628l0.338 1.523 6.033-1.339-0.565-2.548c-0.261-1.178-0.546-2.153-0.854-2.924-0.309-0.778-0.714-1.323-1.213-1.637-0.501-0.319-1.191-0.381-2.07-0.186v0c-0.853 0.189-1.457 0.528-1.812 1.017-0.356 0.489-0.511 1.22-0.466 2.193 0.044 0.967 0.247 2.267 0.609 3.901zM277.503 16.867v0c-2.301 0.61-4.337 0.381-6.111-0.687-1.775-1.074-3.072-2.769-3.892-5.083v0l3.973-2.46c0.731 1.717 1.524 2.938 2.378 3.663 0.848 0.727 1.871 0.932 3.069 0.614v0c0.941-0.249 1.582-0.706 1.924-1.368 0.348-0.665 0.402-1.448 0.163-2.351v0c-0.215-0.812-0.59-1.496-1.123-2.05-0.525-0.55-1.284-1.06-2.277-1.528v0l-5.899-2.854c-1.197-0.586-2.264-1.307-3.2-2.162-0.939-0.862-1.628-2.12-2.067-3.776v0c-0.395-1.489-0.427-2.821-0.098-3.999 0.329-1.177 0.965-2.176 1.905-2.998 0.947-0.824 2.149-1.428 3.606-1.814v0c2.236-0.593 4.134-0.327 5.694 0.797 1.568 1.129 2.704 2.694 3.407 4.694v0l-3.153 2.232c-0.385-0.932-0.803-1.729-1.254-2.388-0.459-0.665-0.967-1.137-1.524-1.417-0.559-0.286-1.212-0.331-1.96-0.132v0c-0.844 0.224-1.442 0.686-1.794 1.386-0.346 0.699-0.416 1.435-0.212 2.208v0c0.13 0.49 0.36 0.943 0.692 1.358 0.337 0.414 0.824 0.778 1.458 1.093v0l6.168 3.248c0.841 0.439 1.655 0.934 2.442 1.484 0.789 0.556 1.5 1.237 2.134 2.041 0.626 0.8 1.098 1.799 1.416 2.997v0c0.422 1.592 0.452 3.005 0.089 4.239-0.367 1.242-1.063 2.285-2.088 3.129-1.025 0.844-2.313 1.472-3.866 1.884z" opacity="1" transform="matrix(1,0,0,1,0,0)" fill="#093d65" class="wordmark-text-0" data-fill-palette-color="primary" id="text-0"></path></svg></g></svg></g></svg></g></svg></g><g><svg viewBox="0 0 33.60222278969361 79.54767113552873" height="79.54767113552873" width="33.60222278969361"><g><svg xmlns="http://www.w3.org/2000/svg" xmlns:xlink="http://www.w3.org/1999/xlink" version="1.1" x="0" y="0" viewBox="0 0.40939505852998437 100.017 236.77360494147" style="enable-background:new 0 0 100.018 237.184;" xml:space="preserve" width="33.60222278969361" height="79.54767113552873" class="icon-icon-0" data-fill-palette-color="accent" id="icon-0"><g fill="#f98e54" data-fill-palette-color="accent"><path d="M0.365 134.356c0.067 1.458 0.142 2.931 0.23 4.441 0.251 4.252 3.775 7.532 7.982 7.532 0.157 0 0.315-0.004 0.475-0.014 4.408-0.26 7.777-4.045 7.517-8.456-0.072-1.232-0.13-2.423-0.188-3.615-2.241 0.377-4.808 0.493-7.354 0.499C5.757 134.743 2.56 134.538 0.365 134.356z" fill="#f98e54" data-fill-palette-color="accent"></path><path d="M20.604 53.59c-4.934 2.963-10.045 8.625-13.727 18.003C2.77 81.973 0.013 96.979 0 119.638c0 3.684 0.084 7.595 0.241 11.695 2.138 0.184 5.437 0.411 8.784 0.411 2.588 0.005 5.205-0.148 7.223-0.52C16.085 127.129 16 123.254 16 119.638c-0.03-21.456 2.738-34.581 5.781-42.233 0.204-2.506 0.303-4.938 0.303-7.261C22.086 63.659 21.396 57.979 20.604 53.59z" fill="#f98e54" data-fill-palette-color="accent"></path><path d="M99.777 131.336c0.155-4.103 0.239-8.014 0.24-11.697-0.042-30.183-4.862-46.888-11.435-56.931-2.822-4.285-6.056-7.24-9.163-9.114-0.792 4.392-1.484 10.063-1.482 16.55-0.001 2.335 0.099 4.781 0.305 7.302 0.198 0.496 0.396 1.01 0.594 1.554 2.818 7.813 5.19 20.631 5.18 40.64 0.001 3.616-0.083 7.49-0.245 11.587 2.016 0.37 4.634 0.523 7.224 0.517C94.342 131.743 97.64 131.519 99.777 131.336z" fill="#f98e54" data-fill-palette-color="accent"></path><path d="M99.426 138.795c0.088-1.51 0.161-2.982 0.229-4.439-2.194 0.181-5.392 0.385-8.66 0.387-2.548-0.005-5.114-0.12-7.355-0.497-0.058 1.192-0.115 2.384-0.187 3.617-0.258 4.412 3.109 8.196 7.522 8.454 0.158 0.009 0.316 0.014 0.474 0.014C95.653 146.331 99.178 143.049 99.426 138.795z" fill="#f98e54" data-fill-palette-color="accent"></path><path d="M50.013 126.594c-10.682-0.012-22.522-3.06-27.047-4.343v4.569 98c0 6.83 5.537 12.363 12.363 12.363 6.828 0 12.365-5.533 12.365-12.363v-81.852h4.635v81.852c0 6.83 5.537 12.363 12.363 12.363 6.828 0 12.365-5.533 12.365-12.363v-98-4.57C72.532 123.533 60.692 126.582 50.013 126.594z" fill="#f98e54" data-fill-palette-color="accent"></path><path d="M74.937 70.144c0.001-7.147 0.808-13.332 1.695-17.981-3.012-1.279-5.605-1.555-7.162-1.549-0.635 0-1.119 0.044-1.437 0.085h-3.351l-1.92 15.012-9.75-11.75 2.943-3.262H44.068l2.943 3.262-9.75 11.75-1.92-15.012h-3.351c-0.315-0.041-0.802-0.085-1.44-0.085-1.559-0.005-4.15 0.269-7.162 1.548 0.888 4.649 1.695 10.835 1.696 17.981 0 5.943-0.576 12.555-2.119 19.479v29.507c1.462 0.427 4.42 1.253 8.182 2.082 5.416 1.195 12.462 2.384 18.865 2.381 6.402 0.003 13.448-1.185 18.864-2.381 3.76-0.829 6.718-1.652 8.181-2.08V89.628C75.512 82.7 74.937 76.088 74.937 70.144z" fill="#f98e54" data-fill-palette-color="accent"></path><circle cx="50.012" cy="22.5" r="23" fill="#f98e54" data-fill-palette-color="accent"></circle></g></svg></g></svg></g></svg></g><defs></defs></svg><rect width="395.5199999999999" height="72.39087387010248" fill="none" stroke="none" visibility="hidden"></rect></g></svg></g></svg>